<svg width="1440" height="634" viewBox="0 0 1440 634" fill="none" xmlns="http://www.w3.org/2000/svg">
<g opacity="0.1">
<path d="M111.593 12.832H0.547607V620.677H106.918C173.545 620.677 207.443 577.972 207.443 492.56V401.454C207.443 361.596 194.585 333.125 167.701 317.466C193.416 300.384 207.443 273.337 207.443 233.478V142.373C207.443 55.5379 175.883 12.832 111.593 12.832ZM136.14 492.56C136.14 519.607 125.62 533.842 104.58 533.842H73.0195V360.172H95.2287C105.749 360.172 111.593 361.596 116.269 363.019C129.127 368.713 136.14 381.525 136.14 401.454V492.56ZM136.14 232.055C136.14 251.984 129.127 264.796 116.269 270.49C112.762 271.914 105.749 273.337 95.2287 273.337H73.0195V99.6671H104.58C125.62 99.6671 136.14 113.902 136.14 140.949V232.055Z" fill="white"/>
<path d="M351.22 2.85669C282.255 2.85669 248.356 45.5624 248.356 130.974V502.514C248.356 587.926 282.255 630.631 351.22 630.631C420.185 630.631 455.252 587.926 455.252 502.514V421.373H382.78V502.514C382.78 529.561 372.26 543.796 351.22 543.796C330.18 543.796 319.659 529.561 319.659 502.514V360.161H454.083V130.974C455.252 45.5624 420.185 2.85669 351.22 2.85669ZM382.78 273.326H319.659V130.974C319.659 103.927 330.18 89.6917 351.22 89.6917C372.26 89.6917 382.78 103.927 382.78 130.974V273.326Z" fill="white"/>
<path d="M821.11 2.85669C752.145 2.85669 718.247 45.5624 718.247 130.974V502.514C718.247 587.926 752.145 630.631 821.11 630.631C890.075 630.631 925.142 587.926 925.142 502.514V130.974C923.973 45.5624 890.075 2.85669 821.11 2.85669ZM852.671 502.514C852.671 529.561 842.15 543.796 821.11 543.796C800.07 543.796 789.55 529.561 789.55 502.514V130.974C789.55 103.927 800.07 89.6917 821.11 89.6917C842.15 89.6917 852.671 103.927 852.671 130.974V502.514Z" fill="white"/>
<path d="M1343.6 12.832H1232.56V620.677H1338.93C1405.55 620.677 1439.45 577.972 1439.45 492.56V140.949C1439.45 55.5378 1406.72 12.832 1343.6 12.832ZM1366.98 492.56C1366.98 519.607 1356.46 533.842 1335.42 533.842H1303.86V99.6671H1335.42C1356.46 99.6671 1366.98 113.902 1366.98 140.949V492.56Z" fill="white"/>
<path d="M720.585 12.832H644.606L617.722 136.679L660.971 250.561L720.585 12.832Z" fill="white"/>
<path d="M1082.94 0C1053.72 0 1029.17 15.6587 1010.47 46.9763C990.598 76.8703 980.078 115.306 980.078 159.435V633.469H1049.04V158.011C1049.04 142.353 1052.55 129.541 1058.39 119.576C1065.41 109.611 1073.59 103.917 1082.94 103.917C1092.29 103.917 1100.47 109.611 1107.49 119.576C1114.5 129.541 1116.84 142.353 1116.84 158.011V632.045H1185.8V158.011C1185.8 113.882 1175.28 76.8703 1155.41 45.5528C1134.37 14.2352 1110.99 0 1082.94 0Z" fill="white"/>
<path d="M643.432 317.458L575.636 316.034L461.084 18.5175L530.049 17.094L643.432 317.458Z" fill="#EE7623"/>
<path d="M527.711 619.24L643.432 317.453L575.636 316.029L461.084 616.393L527.711 619.24Z" fill="#1D8649"/>
</g>
</svg>
