<svg width="126" height="301" viewBox="0 0 126 301" fill="none" xmlns="http://www.w3.org/2000/svg">
<g style="mix-blend-mode:screen">
<path fill-rule="evenodd" clip-rule="evenodd" d="M31.6972 17.0374H7.87162e-05L76.1178 150.673L0 284.309H31.6971L107.815 150.673L31.6972 17.0374Z" fill="url(#paint0_radial_1002_533)"/>
</g>
<g style="mix-blend-mode:screen">
<ellipse cx="9.20961" cy="95.6843" rx="9.20961" ry="95.6843" transform="matrix(0.938355 -0.345673 0.486448 0.873709 15.4353 6.36694)" fill="url(#paint1_radial_1002_533)"/>
</g>
<g style="mix-blend-mode:screen">
<ellipse cx="9.20961" cy="95.6843" rx="9.20961" ry="95.6843" transform="matrix(0.938355 0.345673 0.486448 -0.873709 15.6254 294.633)" fill="url(#paint2_radial_1002_533)"/>
</g>
<g style="mix-blend-mode:screen">
<rect width="3.46719" height="157.732" transform="matrix(0.93838 -0.345604 0.486364 0.873756 37.2776 28.4543)" fill="url(#paint3_radial_1002_533)"/>
</g>
<g style="mix-blend-mode:screen">
<rect width="3.46719" height="160.341" transform="matrix(0.93838 0.345604 0.486364 -0.873756 39.9562 268.459)" fill="url(#paint4_radial_1002_533)"/>
</g>
<defs>
<radialGradient id="paint0_radial_1002_533" cx="0" cy="0" r="1" gradientUnits="userSpaceOnUse" gradientTransform="translate(71.0953 150.703) rotate(96.0288) scale(162.588 65.3415)">
<stop stop-color="#E0E0E0"/>
<stop offset="1" stop-opacity="0"/>
</radialGradient>
<radialGradient id="paint1_radial_1002_533" cx="0" cy="0" r="1" gradientUnits="userSpaceOnUse" gradientTransform="translate(9.20961 95.6843) rotate(90) scale(95.6843 9.20961)">
<stop stop-color="#249DD1"/>
<stop offset="1" stop-color="#000101" stop-opacity="0"/>
</radialGradient>
<radialGradient id="paint2_radial_1002_533" cx="0" cy="0" r="1" gradientUnits="userSpaceOnUse" gradientTransform="translate(9.20961 95.6843) rotate(90) scale(95.6843 9.20961)">
<stop stop-color="#249DD1"/>
<stop offset="1" stop-color="#000101" stop-opacity="0"/>
</radialGradient>
<radialGradient id="paint3_radial_1002_533" cx="0" cy="0" r="1" gradientUnits="userSpaceOnUse" gradientTransform="translate(1.73359 78.8658) rotate(90) scale(78.8658 1.73359)">
<stop stop-color="#249DD1"/>
<stop offset="1" stop-color="#000101" stop-opacity="0"/>
</radialGradient>
<radialGradient id="paint4_radial_1002_533" cx="0" cy="0" r="1" gradientUnits="userSpaceOnUse" gradientTransform="translate(1.73359 80.1703) rotate(90) scale(80.1703 1.73359)">
<stop stop-color="#249DD1"/>
<stop offset="1" stop-color="#000101" stop-opacity="0"/>
</radialGradient>
</defs>
</svg>
