<svg width="172" height="454" viewBox="0 0 172 454" fill="none" xmlns="http://www.w3.org/2000/svg">
<g style="mix-blend-mode:screen">
<path fill-rule="evenodd" clip-rule="evenodd" d="M37.9029 32.0464H9.74171e-05L91.0201 229.046L0 426.046H37.9028L128.923 229.046L37.9029 32.0464Z" fill="url(#paint0_radial_1253_1298)"/>
</g>
<g style="mix-blend-mode:screen">
<ellipse cx="90.1285" cy="152.922" rx="15" ry="160" transform="rotate(-24.3649 90.1285 152.922)" fill="url(#paint1_radial_1253_1298)"/>
</g>
<g style="mix-blend-mode:screen">
<ellipse cx="15" cy="160" rx="15" ry="160" transform="matrix(0.910937 0.412546 0.412546 -0.910937 11.6844 441.13)" fill="url(#paint2_radial_1253_1298)"/>
</g>
<g style="mix-blend-mode:screen">
<rect x="44.5757" y="49.8301" width="4.27073" height="222.403" transform="rotate(-24.36 44.5757 49.8301)" fill="url(#paint3_radial_1253_1298)"/>
</g>
<g style="mix-blend-mode:screen">
<rect width="4.27073" height="226.082" transform="matrix(0.910972 0.412469 0.412469 -0.910972 47.7788 402.653)" fill="url(#paint4_radial_1253_1298)"/>
</g>
<defs>
<radialGradient id="paint0_radial_1253_1298" cx="0" cy="0" r="1" gradientUnits="userSpaceOnUse" gradientTransform="translate(85.0143 229.091) rotate(94.8965) scale(239.227 78.2819)">
<stop stop-color="#E0E0E0"/>
<stop offset="1" stop-opacity="0"/>
</radialGradient>
<radialGradient id="paint1_radial_1253_1298" cx="0" cy="0" r="1" gradientUnits="userSpaceOnUse" gradientTransform="translate(90.1285 152.922) rotate(90) scale(160 15)">
<stop stop-color="#249DD1"/>
<stop offset="1" stop-color="#000101" stop-opacity="0"/>
</radialGradient>
<radialGradient id="paint2_radial_1253_1298" cx="0" cy="0" r="1" gradientUnits="userSpaceOnUse" gradientTransform="translate(15 160) rotate(90) scale(160 15)">
<stop stop-color="#249DD1"/>
<stop offset="1" stop-color="#000101" stop-opacity="0"/>
</radialGradient>
<radialGradient id="paint3_radial_1253_1298" cx="0" cy="0" r="1" gradientUnits="userSpaceOnUse" gradientTransform="translate(46.7111 161.032) rotate(90) scale(111.202 2.13537)">
<stop stop-color="#249DD1"/>
<stop offset="1" stop-color="#000101" stop-opacity="0"/>
</radialGradient>
<radialGradient id="paint4_radial_1253_1298" cx="0" cy="0" r="1" gradientUnits="userSpaceOnUse" gradientTransform="translate(2.13537 113.041) rotate(90) scale(113.041 2.13537)">
<stop stop-color="#249DD1"/>
<stop offset="1" stop-color="#000101" stop-opacity="0"/>
</radialGradient>
</defs>
</svg>
